<svg xmlns="http://www.w3.org/2000/svg" xmlns:xlink="http://www.w3.org/1999/xlink" width="29.5" height="33.002" viewBox="0 0 29.5 33.002">
  <defs>
    <clipPath id="clip-path">
      <path id="Path_8" data-name="Path 8" d="M1345.064,2637.453h20.388l-11.06-10.96a2.032,2.032,0,0,1,0-2.894,2.077,2.077,0,0,1,2.919,0l14.583,14.452a2.066,2.066,0,0,1,.26.315,1.683,1.683,0,0,1,.082.15,2.045,2.045,0,0,1,.108.2,1.729,1.729,0,0,1,.063.2c.018.059.04.115.053.177a2,2,0,0,1,0,.8,1.5,1.5,0,0,1-.053.178,1.866,1.866,0,0,1-.063.205,2.275,2.275,0,0,1-.108.2c-.027.05-.05.1-.082.151a2.132,2.132,0,0,1-.261.316l-14.582,14.451a2.076,2.076,0,0,1-2.919,0,2.031,2.031,0,0,1,0-2.893l11.06-10.963h-20.388a2.047,2.047,0,1,1,0-4.093" fill="#848484" clip-rule="evenodd"/>
    </clipPath>
    <clipPath id="clip-path-2">
      <rect id="Rectangle_56" data-name="Rectangle 56" width="1440" height="4962" fill="#848484"/>
    </clipPath>
  </defs>
  <g id="Group_177" data-name="Group 177" transform="translate(1372.5 2656.002) rotate(180)">
    <g id="Group_125" data-name="Group 125" clip-path="url(#clip-path)">
      <g id="Group_124" data-name="Group 124">
        <g id="Group_123" data-name="Group 123" clip-path="url(#clip-path-2)">
          <rect id="Rectangle_55" data-name="Rectangle 55" width="39.501" height="43.002" transform="translate(1338 2618)" fill="#848484"/>
        </g>
      </g>
    </g>
  </g>
</svg>
