<svg id="Layer_1" data-name="Layer 1" xmlns="http://www.w3.org/2000/svg" viewBox="0 0 560 440"><defs><style>.cls-1{fill:#29abe2;}.cls-2,.cls-3{font-size:40px;fill:#fff;}.cls-2{font-family:AGStencil, AG Stencil;}.cls-3{font-family:Lato-Thin, Lato;}.cls-4{letter-spacing:0em;}.cls-5{letter-spacing:0.01em;}.cls-6{letter-spacing:0.25em;}.cls-7{letter-spacing:0em;}.cls-8{letter-spacing:-0.02em;}.cls-9{letter-spacing:0.32em;}.cls-10{letter-spacing:0em;}.cls-11{letter-spacing:-0.01em;}.cls-12{letter-spacing:0em;}.cls-13{letter-spacing:-0.02em;}.cls-14{letter-spacing:0.27em;}.cls-15{letter-spacing:0.01em;}.cls-16{letter-spacing:0em;}.cls-17{letter-spacing:-0.01em;}.cls-18{letter-spacing:-0.01em;}.cls-19{font-size:24px;font-family:Lato-ThinItalic, Lato;font-style:italic;}.cls-20{letter-spacing:-0.03em;}.cls-21{letter-spacing:-0.01em;}.cls-22{letter-spacing:-0.03em;}.cls-23{letter-spacing:-0.01em;}.cls-24{letter-spacing:-0.01em;}.cls-25{letter-spacing:-0.01em;}.cls-26{letter-spacing:-0.01em;}.cls-27{letter-spacing:-0.01em;}.cls-28{letter-spacing:0em;}.cls-29{letter-spacing:-0.01em;}</style></defs><title>Artboard 1</title><rect class="cls-1" width="560" height="440"/><text class="cls-2" transform="translate(338.84 413.71)">Authorship</text><text class="cls-3" transform="translate(28 84.06) scale(0.92 1)"><tspan class="cls-4">B</tspan><tspan class="cls-5" x="25.15" y="0">es</tspan><tspan x="63.68" y="0">t</tspan><tspan class="cls-6" x="77.04" y="0"> </tspan><tspan class="cls-7" x="98.07" y="0">A</tspan><tspan class="cls-5" x="123.78" y="0">utho</tspan><tspan class="cls-8" x="204.87" y="0">r</tspan><tspan class="cls-9" x="217.89" y="0"> </tspan><tspan class="cls-10" x="241.69" y="0">B</tspan><tspan class="cls-11" x="266.84" y="0">o</tspan><tspan class="cls-12" x="288.62" y="0">x</tspan><tspan class="cls-9" x="306.78" y="0"> </tspan><tspan class="cls-5" x="330.58" y="0">a</tspan><tspan class="cls-13" x="350.17" y="0">r</tspan><tspan class="cls-5" x="363.3" y="0">oun</tspan><tspan x="430.54" y="0">d</tspan><tspan class="cls-14" x="452.4" y="0"> </tspan><tspan class="cls-5" x="474.37" y="0">wit</tspan><tspan x="527.91" y="0">h </tspan><tspan class="cls-5" x="0" y="48">unlimi</tspan><tspan class="cls-15" x="104.02" y="48">t</tspan><tspan class="cls-5" x="117.85" y="48">e</tspan><tspan x="139.06" y="48">d </tspan><tspan class="cls-5" x="172.1" y="48">stylin</tspan><tspan class="cls-16" x="263.92" y="48">g </tspan><tspan class="cls-5" x="295.32" y="48">an</tspan><tspan x="337.24" y="48">d </tspan><tspan x="0" y="96">displ</tspan><tspan class="cls-17" x="77.64" y="96">a</tspan><tspan x="96.44" y="96">ying o</tspan><tspan class="cls-18" x="200.16" y="96">p</tspan><tspan x="221.8" y="96">tions.</tspan><tspan class="cls-19"><tspan x="0" y="160.8">- </tspan><tspan class="cls-20" x="14.88" y="160.8">R</tspan><tspan x="27.44" y="160.8">egis</tspan><tspan class="cls-21" x="63.6" y="160.8">t</tspan><tspan x="71.34" y="160.8">e</tspan><tspan class="cls-22" x="82.46" y="160.8">r</tspan><tspan x="89.46" y="160.8">ed and guest autho</tspan><tspan class="cls-23" x="275.91" y="160.8">r</tspan><tspan x="283.48" y="160.8">s</tspan><tspan x="0" y="189.6">- </tspan><tspan class="cls-20" x="14.88" y="189.6">R</tspan><tspan x="27.44" y="189.6">ela</tspan><tspan class="cls-21" x="55.19" y="189.6">t</tspan><tspan x="62.93" y="189.6">ed posts</tspan><tspan x="0" y="218.4">- </tspan><tspan class="cls-24" x="14.88" y="218.4">S</tspan><tspan x="26.59" y="218.4">ocial media p</tspan><tspan class="cls-22" x="154.7" y="218.4">r</tspan><tspan class="cls-25" x="161.7" y="218.4">o</tspan><tspan x="173.76" y="218.4">files</tspan><tspan x="0" y="247.2">- </tspan><tspan class="cls-26" x="14.88" y="247.2">P</tspan><tspan x="27.37" y="247.2">la</tspan><tspan class="cls-27" x="43.99" y="247.2">c</tspan><tspan class="cls-28" x="54.74" y="247.2">e it a</tspan><tspan class="cls-29" x="103.1" y="247.2">n</tspan><tspan x="115.07" y="247.2">ywhe</tspan><tspan class="cls-22" x="166.04" y="247.2">r</tspan><tspan x="173.04" y="247.2">e</tspan></tspan></text></svg>